<svg version="1.1" viewBox="0.0 0.0 576.0 480.0" fill="none" stroke="none" stroke-linecap="square" stroke-miterlimit="10" xmlns:xlink="http://www.w3.org/1999/xlink" xmlns="http://www.w3.org/2000/svg"><clipPath id="p.0"><path d="m0 0l576.0 0l0 480.0l-576.0 0l0 -480.0z" clip-rule="nonzero"/></clipPath><g clip-path="url(#p.0)"><path fill="#000000" fill-opacity="0.0" d="m0 0l576.0 0l0 480.0l-576.0 0z" fill-rule="evenodd"/><path fill="#6d9eeb" d="m240.0 240.0l0 0c0 -26.509674 21.490326 -48.0 48.0 -48.0l0 0c12.730377 0 24.939392 5.057129 33.94113 14.058868c9.0017395 9.001755 14.058868 21.21074 14.058868 33.94113l0 0c0 26.509674 -21.490326 48.0 -48.0 48.0l0 0c-26.509674 0 -48.0 -21.490326 -48.0 -48.0z" fill-rule="evenodd"/><path stroke="#000000" stroke-width="1.0" stroke-linejoin="round" stroke-linecap="butt" d="m240.0 240.0l0 0c0 -26.509674 21.490326 -48.0 48.0 -48.0l0 0c12.730377 0 24.939392 5.057129 33.94113 14.058868c9.0017395 9.001755 14.058868 21.21074 14.058868 33.94113l0 0c0 26.509674 -21.490326 48.0 -48.0 48.0l0 0c-26.509674 0 -48.0 -21.490326 -48.0 -48.0z" fill-rule="evenodd"/></g></svg>