<svg version="1.1" viewBox="0.0 0.0 576.0 480.0" fill="none" stroke="none" stroke-linecap="square" stroke-miterlimit="10" xmlns:xlink="http://www.w3.org/1999/xlink" xmlns="http://www.w3.org/2000/svg"><clipPath id="p.0"><path d="m0 0l576.0 0l0 480.0l-576.0 0l0 -480.0z" clip-rule="nonzero"/></clipPath><g clip-path="url(#p.0)"><path fill="#000000" fill-opacity="0.0" d="m0 0l576.0 0l0 480.0l-576.0 0z" fill-rule="evenodd"/><path fill="#999999" d="m336.0 192.0l192.0 0l0 96.0l-192.0 0z" fill-rule="evenodd"/><path stroke="#000000" stroke-width="1.0" stroke-linejoin="round" stroke-linecap="butt" d="m336.0 192.0l192.0 0l0 96.0l-192.0 0z" fill-rule="evenodd"/><path fill="#6d9eeb" d="m144.0 240.0l0 0c0 -79.52901 64.47099 -144.0 144.0 -144.0l0 0c38.191162 0 74.818146 15.171387 101.823364 42.17662c27.005249 27.005249 42.176636 63.632202 42.176636 101.82338l0 0c0 79.52899 -64.47101 144.0 -144.0 144.0l0 0c-79.52901 0 -144.0 -64.47101 -144.0 -144.0z" fill-rule="evenodd"/><path stroke="#000000" stroke-width="1.0" stroke-linejoin="round" stroke-linecap="butt" d="m144.0 240.0l0 0c0 -79.52901 64.47099 -144.0 144.0 -144.0l0 0c38.191162 0 74.818146 15.171387 101.823364 42.17662c27.005249 27.005249 42.176636 63.632202 42.176636 101.82338l0 0c0 79.52899 -64.47101 144.0 -144.0 144.0l0 0c-79.52901 0 -144.0 -64.47101 -144.0 -144.0z" fill-rule="evenodd"/></g></svg>