<svg version="1.1" viewBox="0.0 0.0 480.0 480.0" fill="none" stroke="none" stroke-linecap="square" stroke-miterlimit="10" xmlns:xlink="http://www.w3.org/1999/xlink" xmlns="http://www.w3.org/2000/svg"><clipPath id="p.0"><path d="m0 0l480.0 0l0 480.0l-480.0 0l0 -480.0z" clip-rule="nonzero"/></clipPath><g clip-path="url(#p.0)"><path fill="#000000" fill-opacity="0.0" d="m0 0l480.0 0l0 480.0l-480.0 0z" fill-rule="evenodd"/><path fill="#6d9eeb" d="m0 240.0l0 0c0 -132.54834 107.45166 -240.0 240.0 -240.0l0 0c63.651947 0 124.6969 25.285643 169.70563 70.29437c45.008728 45.008728 70.29437 106.053665 70.29437 169.70563l0 0c0 132.54834 -107.45166 240.0 -240.0 240.0l0 0c-132.54834 0 -240.0 -107.45166 -240.0 -240.0z" fill-rule="evenodd"/><path stroke="#000000" stroke-width="1.0" stroke-linejoin="round" stroke-linecap="butt" d="m0 240.0l0 0c0 -132.54834 107.45166 -240.0 240.0 -240.0l0 0c63.651947 0 124.6969 25.285643 169.70563 70.29437c45.008728 45.008728 70.29437 106.053665 70.29437 169.70563l0 0c0 132.54834 -107.45166 240.0 -240.0 240.0l0 0c-132.54834 0 -240.0 -107.45166 -240.0 -240.0z" fill-rule="evenodd"/></g></svg>